<svg width="20" height="49" viewBox="0 0 20 49" fill="none" xmlns="http://www.w3.org/2000/svg">
<path d="M9.075 24.52C2.264 14.642 1 13.629 1 10C1 5.029 5.029 1 10 1C14.971 1 19 5.029 19 10C19 13.629 17.736 14.64 10.925 24.516C10.8216 24.665 10.6837 24.7867 10.5231 24.871C10.3625 24.9552 10.1839 24.9994 10.0025 24.9998C9.82119 25.0002 9.64243 24.9568 9.48146 24.8732C9.32049 24.7897 9.18208 24.6685 9.078 24.52L9.076 24.516L9.075 24.52ZM10 13.75C10.9946 13.75 11.9484 13.3549 12.6517 12.6517C13.3549 11.9484 13.75 10.9946 13.75 10C13.75 9.00544 13.3549 8.05161 12.6517 7.34835C11.9484 6.64509 10.9946 6.25 10 6.25C9.00544 6.25 8.05161 6.64509 7.34835 7.34835C6.64509 8.05161 6.25 9.00544 6.25 10C6.25 10.9946 6.64509 11.9484 7.34835 12.6517C8.05161 13.3549 9.00544 13.75 10 13.75Z" fill="black" stroke="white" stroke-linejoin="round"/>
</svg>
